<svg xmlns="http://www.w3.org/2000/svg" viewBox="0 0 283.7 334.5" enable-background="new 0 0 283.7 334.5"><ellipse transform="matrix(.707 .707 -.707 .707 174.784 -38.046)" fill-rule="evenodd" clip-rule="evenodd" fill="#fff" cx="133.3" cy="192" rx="6.8" ry="4.3"/><ellipse transform="matrix(-.707 .707 -.707 -.707 391.894 221.583)" fill-rule="evenodd" clip-rule="evenodd" fill="#fff" cx="150.1" cy="192" rx="6.8" ry="4.3"/><path fill-rule="evenodd" clip-rule="evenodd" fill="#fff" d="M104.7 132c-11.9 0-21.5 9.7-21.5 21.5 0 11.9 9.6 21.5 21.5 21.5 11.8 0 21.5-9.6 21.5-21.5s-9.6-21.5-21.5-21.5zm-.2 30.7c-4.2 0-7.7-2.8-8.8-6.6.6.3 1.2.4 1.8.4 2.4 0 4.3-1.9 4.3-4.3s-1.9-4.3-4.3-4.3h-.1c1.7-2.1 4.2-3.4 7.1-3.4 5.1 0 9.2 4.1 9.2 9.2 0 4.9-4.1 9-9.2 9z"/><path fill-rule="evenodd" clip-rule="evenodd" fill="#fff" d="M178.7 132c-11.9 0-21.5 9.7-21.5 21.5 0 11.9 9.7 21.5 21.5 21.5 11.9 0 21.5-9.6 21.5-21.5s-9.6-21.5-21.5-21.5zm-.8 30.7c-4.2 0-7.7-2.8-8.8-6.6.6.3 1.2.4 1.8.4 2.4 0 4.3-1.9 4.3-4.3s-1.9-4.3-4.3-4.3h-.1c1.7-2.1 4.2-3.4 7.1-3.4 5.1 0 9.2 4.1 9.2 9.2-.1 4.9-4.2 9-9.2 9z"/><g fill="#fff"><path d="M126 319.6l-.9-.1-.2 1.9.8.1c.6.1.9-.3 1-.8.1-.6-.2-1.1-.7-1.1zM158 319.5c-1 .1-1.8 1.1-1.6 2.2.1 1.2 1.1 2 2.1 1.8 1-.1 1.7-1.1 1.6-2.3-.2-1.1-1.1-1.8-2.1-1.7zM149.1 320.3h-.6l.1 1.7h.7c.5 0 .9-.4.8-.9.1-.5-.1-.8-1-.8zM118.1 318.5s-.3.7-.5 1.1l-.6 1.3 1.3.3-.1-1.4c-.1-.6-.1-1.3-.1-1.3zM169.4 53.5c-1.4-.3-2.4-1.6-2.1-3.1l5-29.5-19.3 25.5c-.5.7-1.3 1-2.1 1.1-.8 0-1.6-.4-2.1-1.1l-34.8-46.4 8.1 49.4c.1.7-.1 1.4-.5 2-.4.6-1.1 1-1.8 1.1-33.1 5.1-63.4 22-85.4 47.5-22.2 25.7-34.4 58.6-34.4 92.7 0 78.2 63.6 141.8 141.8 141.8 78.2 0 141.8-63.6 141.8-141.8.1-67.6-48-126.2-114.2-139.2zm-50.8 270.5l-.1-1.5-2.1-.4-.7 1.4-1.7-.3 3.6-6.4 1.8.3 1 7.3-1.8-.4zm7.3-1.1l-1.2-.1-.3 2.1-1.7-.2.9-6.9 2.9.4c1.3.2 2.1 1.3 1.9 2.7-.2 1.3-1.2 2.2-2.5 2zm9.4-2.5l-2.6-.2-.1 1.3 2.1.1-.1 1.5-2.1-.1-.1 1.3 2.8.2-.1 1.5-4.5-.3.5-6.9 4.3.3-.1 1.3zm8.8 5.7h-1.4v-.5s-.7.6-1.8.6c-1.8 0-3.4-1.4-3.3-3.7 0-2 1.6-3.5 3.7-3.5 1.8 0 2.7 1 2.7 1l-.8 1.3s-.7-.7-1.7-.7c-1.5 0-2.1.9-2.1 1.9 0 1.3.9 2.1 2 2.1.8 0 1.4-.5 1.4-.5v-.5h-1v-1.4h2.5l-.2 3.9zm6.8-.4l-1.4-2.3h-.8l.1 2.3-1.7.1-.4-6.9 2.4-.1c.7 0 1 0 1.4.1.8.3 1.3.9 1.4 1.9 0 .7-.3 1.6-.9 1.9 0 0 .1.1.3.4l1.5 2.3-1.9.3zm7.7-.6c-2.1.3-3.8-1.1-4-3.1-.2-2 1.1-3.7 3.2-4 2.1-.3 3.8 1.1 4 3.1.2 2-1.1 3.7-3.2 4zm9.3-1.5c-1.7.3-3.1-.5-3.4-2.1l-.9-4.3 1.7-.3.8 4.3c.1.7.7 1 1.4.9.7-.1 1.1-.6 1-1.3l-.8-4.3 1.7-.3.9 4.3c.3 1.4-.7 2.8-2.4 3.1zm8.3-4.3l-1.1.3.5 2.1-1.6.4-1.8-6.7 2.8-.7c1.3-.3 2.4.4 2.8 1.7.3 1.4-.3 2.6-1.6 2.9zm8.4-122.1c6.9 9.4 11 21.2 11 34 0 31-24.2 56.2-54.1 56.2-29.9 0-54.1-25.1-54.1-56.2 0-12.8 4.1-24.5 11-34-21.4-3-37.9-21.4-37.9-43.7 0-24.4 19.8-44.2 44.2-44.2 15.3 0 28.8 7.8 36.7 19.6 7.9-11.8 21.4-19.6 36.7-19.6 24.4 0 44.2 19.8 44.2 44.2 0 22.2-16.4 40.5-37.7 43.7zM175 316.2l-.8.2.5 1.8.8-.2c.6-.2.8-.6.6-1.1-.2-.5-.6-.8-1.1-.7z"/></g><rect x="86.1" y="240.4" fill="#fff" width="111.7" height="6"/></svg>