<svg xmlns="http://www.w3.org/2000/svg" viewBox="2.5 203.8 495.5 92.3" enable-background="new 2.5 203.8 495.5 92.3"><path d="M34.2 272.3l-1.3-4.9c-2.2 3-5.7 6.6-14 6.6-8.5 0-16.3-3.2-16.3-15.5 0-14.1 10.9-18.1 23.7-18.6l5.5-.3v-4.1c0-5-1.6-6.7-6.2-6.7-3.9 0-7.7 1.5-9.3 2l-1.3 6.6h-7.7v-13.8c5.3-1.9 13.3-4.9 24.9-4.9 11.9 0 18.1 5.3 18.1 16.7v28.7l5 1.1v7.1h-21.1zm-2.5-24.4l-3.7.3c-4 .3-6.2 2.8-6.2 8 0 4.4 1.8 6.4 4.4 6.4 2.3 0 4.5-1.5 5.6-2.8l-.1-11.9zm58.5 26.1c-6.2 0-10.5-2.8-10.5-2.8v14.9l6.1 1.1v7.1h-29.6v-7.1l5-1.1v-57.5l-5-1.1v-7l21.7-1.8 1.2 5.7c2.8-2.5 6.7-5.7 14.1-5.7 9.8 0 19.1 5.4 19.1 26.9.1 24.9-13.2 28.4-22.1 28.4zm-3.7-43.6c-2.8 0-5.3 1.6-6.7 2.8v27.5s2.7 1.6 5.7 1.6c4 0 7.3-2.7 7.3-16.9-.1-12.8-2.5-15-6.3-15zm51.1 19.7c.6 9.6 4.1 12.9 9.5 12.9 5.2 0 10.9-2.3 15.5-4.9l3.9 9c-4.5 3.1-11.6 6.8-21.7 6.8-13 0-26.7-4.7-26.7-27.8 0-19.9 11.1-27.5 25.4-27.5 15.8 0 23.2 8.7 23.2 31.4-.1.1-29.1.1-29.1.1zm5.5-21.9c-4 0-5.4 3.3-5.6 13.7h10.6c-.1-8.9-.7-13.7-5-13.7zm73.3 2.3c1.2 1.5 2.3 3.9 2.3 7.3 0 14-11.1 18.5-23.2 18.5-2.8 0-5.6-.3-7.6-.8-.4.6-1 1.5-1 2.7 0 1.8 1.9 2.2 4.6 2.4l14.1 1.1c10.8.9 17.1 4.7 17.1 16 0 14.1-11.6 18.5-28.4 18.5-14.3 0-24.2-3.2-24.2-13.8 0-6.2 4.4-9.7 8-11.1-2.8-1.6-5.1-4.4-5.1-8.6 0-5.7 3.4-8.5 6.6-10.2-4.4-2.8-7.6-7.3-7.6-15 0-14.9 12-18.8 23.4-18.8 3.3 0 7.3.6 10.5 1.8h17.7v10.2l-7.2-.2zm-16.7 45.7l-9.9-.9-3.1-.4c-1 1.1-2.4 3-2.4 5.7 0 3.7 2.7 6.4 10.9 6.4 8.5 0 10.9-2.2 10.9-6.1 0-3.2-2.1-4.4-6.4-4.7zm-4.3-49c-3.2 0-4.7 3.2-4.7 10.2 0 7.4 1.5 10.2 4.7 10.2 3.4 0 4.7-3 4.7-10.2 0-7.6-1.4-10.2-4.7-10.2zm70.6 12h-7.4l-1-7.8c-3 0-5.6 2.4-7.4 5.4v27.3l6.6 1.1v7.1h-30.1v-7.1l5-1.1v-35.5l-5-1.1v-7.1l22.5-1.8.6 7.6c2.5-4.5 6.3-7.6 11-7.6 3.4 0 5.2 1 6.3 1.6l-1.1 19zm31.1 34.8c-13 0-27-5.8-27-27.7 0-21.7 14-27.7 27-27.7s27 5.8 27 27.7-14 27.7-27 27.7zm0-45.2c-4.9 0-7.4 4-7.4 17.6 0 13.7 2.5 17.4 7.4 17.4s7.4-3.7 7.4-17.4-2.5-17.6-7.4-17.6zm65.3 43.5l-1.1-5.2c-3.2 3.3-7.5 6.9-15.8 6.9-7.6 0-14.3-3.9-14.3-14.9v-30.5l-5-1.1v-7.1l23.5-1.8v37.7c0 3.4 1.5 4.9 3.7 4.9 2.8 0 5.5-2 7.1-3.1v-29.5l-4.7-1.1v-7.1l23.2-1.8v45.4l4.9 1.1v7.1c0 .1-21.5.1-21.5.1zm56.6 1.7c-6.2 0-10.5-2.8-10.5-2.8v14.9l6.1 1.1v7.1h-29.6v-7.1l5-1.1v-57.5l-5-1.1v-7.1l21.7-1.8 1.2 5.7c2.8-2.5 6.8-5.7 14.1-5.7 9.8 0 19.1 5.4 19.1 26.9.1 25-13.1 28.5-22.1 28.5zm-3.7-43.6c-2.8 0-5.3 1.6-6.8 2.8v27.5s2.7 1.6 5.7 1.6c4 0 7.3-2.7 7.3-16.9 0-12.8-2.4-15-6.2-15zm54.7-22.6h-5.2v17.3c0 1-.3 1.7-.7 2.2-.4.5-1 .7-1.7.7s-1.3-.3-1.8-.8c-.4-.5-.7-1.2-.7-2.2v-17.2h-5.2c-.8 0-1.5-.2-1.8-.6-.4-.4-.6-.8-.6-1.5 0-.6.2-1.1.6-1.5s1-.5 1.8-.5h15.3c.8 0 1.5.2 1.8.6.4.4.6.9.6 1.5s-.2 1.1-.6 1.5c-.3.3-1 .5-1.8.5zm13.1 16.3l-3.8-15.2v16.4c0 .9-.2 1.6-.6 2-.4.4-.9.7-1.6.7-.6 0-1.2-.2-1.6-.7-.4-.4-.6-1.1-.6-2.1v-18.8c0-1 .3-1.8.8-2.1.6-.4 1.3-.6 2.2-.6h1.5c.9 0 1.6.1 2 .3.4.1.7.4.9.9.2.4.4 1.1.7 2.1l3.5 13.1 3.5-13.1c.3-.9.4-1.6.7-2.1.2-.4.5-.7.9-.9.4-.2 1.1-.3 2-.3h1.5c.9 0 1.6.2 2.2.6.6.4.8 1.1.8 2.1v18.8c0 .9-.2 1.6-.6 2s-.9.7-1.6.7c-.6 0-1.1-.3-1.6-.7-.4-.4-.6-1.1-.6-2v-16.4l-3.8 15.2c-.3 1-.4 1.7-.6 2.1-.1.4-.4.9-.9 1.3s-1 .6-1.8.6c-.6 0-1-.1-1.5-.4-.4-.3-.7-.6-.9-.9-.2-.4-.4-.8-.5-1.3-.3-.4-.4-.9-.6-1.3z"/></svg>