<svg xmlns="http://www.w3.org/2000/svg" width="512" height="512"><path d="M382 90c22.092 0 40 17.909 40 40v252c0 22.092-17.908 40-40 40h-252c-22.092 0-40-17.908-40-40v-252c0-22.091 17.908-40 40-40h252zm80 35c0-41.421-33.578-75-75-75h-262c-41.422 0-75 33.579-75 75v262c0 41.421 33.578 75 75 75h262c41.422 0 75-33.579 75-75v-262zm-82.959 62.333c0-27.614-22.385-50-50-50h-146.082c-27.615 0-50 22.386-50 50s22.385 50 50 50h146.082c27.615 0 50-22.386 50-50zm-169.207 25c-13.809 0-25-11.192-25-25s11.191-25 25-25c13.807 0 25 11.192 25 25s-11.193 25-25 25zm119.207 83.334c18.197 0 33 14.804 33 33s-14.803 33-33 33h-146.082c-18.197 0-33-14.804-33-33s14.803-33 33-33h146.082zm50 33c0-27.614-22.385-50-50-50h-146.082c-27.615 0-50 22.386-50 50s22.385 50 50 50h146.082c27.615 0 50-22.386 50-50zm-72.541 25c-13.807 0-25-11.192-25-25s11.193-25 25-25c13.809 0 25 11.192 25 25s-11.191 25-25 25z"/></svg>