<svg xmlns="http://www.w3.org/2000/svg" width="512" height="512"><path d="M339.621 124.015c-4.846-13.11-17.335-22.515-32.121-22.515-22.279 0-39.715 21.358-32.69 44.317 19.078-6.781 40.284-18.919 64.811-21.802zm-66.454 149.152c0-9.489-7.679-17.167-17.167-17.167s-17.167 7.678-17.167 17.167c0 9.488 7.678 17.167 17.167 17.167s17.167-7.679 17.167-17.167zm91.298 83.653c25.113-5.33 42.414-25.582 36.849-55.389 24.006 26.018-2.683 67.796-36.849 55.389zm-240.358 0c25.113-5.33 42.414-25.582 36.848-55.389 24.006 26.018-2.683 67.796-36.848 55.389zm80.393-255.32c-14.786 0-27.275 9.405-32.12 22.515 24.526 2.883 45.733 15.021 64.811 21.802 7.024-22.959-10.411-44.317-32.691-44.317zm19.463 94.308c20.746 6.806 43.202 6.831 64.056.008 44.896-14.669 60.336-34.099 76.43-5.683 6.722 11.869 22.865 40.117 28.582 50.368-48.984-9.874-95.656 24.317-101.977 73.034-21.174-10.629-47.963-11.115-70.109 0-6.328-48.734-52.975-82.899-101.985-73.034 7.1-12.674 20.301-35.733 28.583-50.36 16.069-28.407 31.484-9.018 76.42 5.667zm123.101-54.493c-23.906 0-49.104 15.122-69.723 21.869-13.932 4.568-28.919 4.51-42.683 0-20.62-6.748-45.809-21.869-69.723-21.869-17.133 0-33.613 7.762-47.275 31.919-41.306 73.035-67.66 114.786-67.66 151.433 0 47.409 38.424 85.833 85.833 85.833 69.329 0 71.349-70.779 120.167-70.779s50.83 70.779 120.167 70.779c47.409 0 85.833-38.424 85.833-85.833 0-36.647-26.354-78.398-67.66-151.432-13.68-24.158-30.143-31.92-47.276-31.92zm29.103 234.852c-28.399 0-51.5-23.102-51.5-51.5 0-28.399 23.101-51.5 51.5-51.5 28.398 0 51.5 23.101 51.5 51.5 0 28.398-23.102 51.5-51.5 51.5zm-240.334 0c-28.399 0-51.5-23.102-51.5-51.5 0-28.399 23.101-51.5 51.5-51.5s51.5 23.101 51.5 51.5c0 28.398-23.101 51.5-51.5 51.5z"/></svg>