<svg xmlns="http://www.w3.org/2000/svg" viewBox="-223 25 512 512" enable-background="new -223 25 512 512"><path d="M43.3 402.3c-5.8-4.3-6.4-10.7-6.4-10.7l-2.2-14h-69.6l-2.2 14s-.6 6.4-6.4 10.7c-5.8 4.3-10.4 8-5.8 8.6 4.4.6 46.2.1 49.2 0 3.1.1 44.8.6 49.2 0 4.6-.7 0-4.3-5.8-8.6zM-118.6 285.1c0-6.5-5.2-11.7-11.7-11.7h-55.5c-6.5 0-11.7 5.2-11.7 11.7v122.8c0 6.5 5.2 11.7 11.7 11.7h55.5c6.5 0 11.7-5.2 11.7-11.7v-122.8zm-45.2 1.5h11.7c.8 0 1.5.7 1.5 1.5s-.7 1.5-1.5 1.5h-11.7c-.8 0-1.5-.7-1.5-1.5 0-.9.7-1.5 1.5-1.5zm5.3 126.1c-3.2 0-5.9-2.6-5.9-5.8 0-3.2 2.6-5.8 5.9-5.8 3.2 0 5.8 2.6 5.8 5.8.1 3.2-2.5 5.8-5.8 5.8zm32.6-16.5h-64.3v-97.9h64.3v97.9zM247.1 206.2h-120.3c-9.1 0-16.4 7.3-16.4 16.4v172.2c0 9.1 7.3 16.4 16.4 16.4h120.3c9.1 0 16.4-7.3 16.4-16.4v-172.2c0-9.1-7.3-16.4-16.4-16.4zm-60.1 195.8c-4.5 0-8.2-3.7-8.2-8.2 0-4.5 3.7-8.2 8.2-8.2 4.5 0 8.2 3.7 8.2 8.2 0 4.6-3.7 8.2-8.2 8.2zm66.2-23.7h-132.5v-157.8h132.6v157.8h-.1zM147.7 192.4h20.2v-36.5c0-7.4-6-13.4-13.4-13.4h-309.1c-7.4 0-13.4 6-13.4 13.4v103.8h20.2v-97.1h295.7v29.8h-.2zM-104.7 323.8v40.3h201.3v-40.3h-201.3zm104.6 29.4c-5.1 0-9.2-4.1-9.2-9.2s4.1-9.2 9.2-9.2 9.2 4.1 9.2 9.2-4.1 9.2-9.2 9.2z"/></svg>