<?xml version="1.0" encoding="utf-8"?>
<!-- Generator: Adobe Illustrator 18.1.1, SVG Export Plug-In . SVG Version: 6.00 Build 0)  -->
<!DOCTYPE svg PUBLIC "-//W3C//DTD SVG 1.1//EN" "http://www.w3.org/Graphics/SVG/1.1/DTD/svg11.dtd">
<svg version="1.1" id="Layer_1" xmlns="http://www.w3.org/2000/svg" xmlns:xlink="http://www.w3.org/1999/xlink" x="0px" y="0px"
	 viewBox="0 0 283.7 334.5" enable-background="new 0 0 283.7 334.5" xml:space="preserve">
<ellipse transform="matrix(0.7071 0.7071 -0.7071 0.7071 174.7837 -38.0463)" fill-rule="evenodd" clip-rule="evenodd" fill="#FFFFFF" cx="133.3" cy="192" rx="6.8" ry="4.3"/>
<ellipse transform="matrix(-0.7071 0.7071 -0.7071 -0.7071 391.894 221.5834)" fill-rule="evenodd" clip-rule="evenodd" fill="#FFFFFF" cx="150.1" cy="192" rx="6.8" ry="4.3"/>
<path fill-rule="evenodd" clip-rule="evenodd" fill="#FFFFFF" d="M104.7,132c-11.9,0-21.5,9.7-21.5,21.5c0,11.9,9.6,21.5,21.5,21.5
	c11.8,0,21.5-9.6,21.5-21.5C126.2,141.6,116.6,132,104.7,132z M104.5,162.7c-4.2,0-7.7-2.8-8.8-6.6c0.6,0.3,1.2,0.4,1.8,0.4
	c2.4,0,4.3-1.9,4.3-4.3c0-2.4-1.9-4.3-4.3-4.3c0,0-0.1,0-0.1,0c1.7-2.1,4.2-3.4,7.1-3.4c5.1,0,9.2,4.1,9.2,9.2
	C113.7,158.6,109.6,162.7,104.5,162.7z"/>
<path fill-rule="evenodd" clip-rule="evenodd" fill="#FFFFFF" d="M178.7,132c-11.9,0-21.5,9.7-21.5,21.5c0,11.9,9.7,21.5,21.5,21.5
	c11.9,0,21.5-9.6,21.5-21.5C200.2,141.6,190.6,132,178.7,132z M177.9,162.7c-4.2,0-7.7-2.8-8.8-6.6c0.6,0.3,1.2,0.4,1.8,0.4
	c2.4,0,4.3-1.9,4.3-4.3c0-2.4-1.9-4.3-4.3-4.3c0,0-0.1,0-0.1,0c1.7-2.1,4.2-3.4,7.1-3.4c5.1,0,9.2,4.1,9.2,9.2
	C187,158.6,182.9,162.7,177.9,162.7z"/>
<g>
	<path fill="#FFFFFF" d="M126,319.6l-0.9-0.1l-0.2,1.9l0.8,0.1c0.6,0.1,0.9-0.3,1-0.8C126.8,320.1,126.5,319.6,126,319.6z"/>
	<path fill="#FFFFFF" d="M158,319.5c-1,0.1-1.8,1.1-1.6,2.2c0.1,1.2,1.1,2,2.1,1.8c1-0.1,1.7-1.1,1.6-2.3
		C159.9,320.1,159,319.4,158,319.5z"/>
	<path fill="#FFFFFF" d="M149.1,320.3l-0.6,0l0.1,1.7l0.7,0c0.5,0,0.9-0.4,0.8-0.9C150.2,320.6,150,320.3,149.1,320.3z"/>
	<path fill="#FFFFFF" d="M118.1,318.5L118.1,318.5c0,0-0.3,0.7-0.5,1.1l-0.6,1.3l1.3,0.3l-0.1-1.4
		C118.1,319.2,118.1,318.5,118.1,318.5z"/>
	<path fill="#FFFFFF" d="M169.4,53.5c-1.4-0.3-2.4-1.6-2.1-3.1l5-29.5L153,46.4c-0.5,0.7-1.3,1-2.1,1.1c-0.8,0-1.6-0.4-2.1-1.1
		L114,0l8.1,49.4c0.1,0.7-0.1,1.4-0.5,2c-0.4,0.6-1.1,1-1.8,1.1c-33.1,5.1-63.4,22-85.4,47.5C12.2,125.7,0,158.6,0,192.7
		c0,78.2,63.6,141.8,141.8,141.8c78.2,0,141.8-63.6,141.8-141.8C283.7,125.1,235.6,66.5,169.4,53.5z M118.6,324l-0.1-1.5l-2.1-0.4
		l-0.7,1.4l-1.7-0.3l3.6-6.4l1.8,0.3l1,7.3L118.6,324z M125.9,322.9l-1.2-0.1l-0.3,2.1l-1.7-0.2l0.9-6.9l2.9,0.4
		c1.3,0.2,2.1,1.3,1.9,2.7C128.2,322.2,127.2,323.1,125.9,322.9z M135.3,320.4l-2.6-0.2l-0.1,1.3l2.1,0.1l-0.1,1.5l-2.1-0.1
		l-0.1,1.3l2.8,0.2l-0.1,1.5l-4.5-0.3l0.5-6.9l4.3,0.3L135.3,320.4z M144.1,326.1l-1.4,0l0-0.2c0-0.1,0-0.3,0-0.3h0
		c0,0-0.7,0.6-1.8,0.6c-1.8,0-3.4-1.4-3.3-3.7c0-2,1.6-3.5,3.7-3.5c1.8,0,2.7,1,2.7,1l-0.8,1.3c0,0-0.7-0.7-1.7-0.7
		c-1.5,0-2.1,0.9-2.1,1.9c0,1.3,0.9,2.1,2,2.1c0.8,0,1.4-0.5,1.4-0.5l0-0.5l-1,0l0-1.4l2.5,0L144.1,326.1z M150.9,325.7l-1.4-2.3
		l-0.8,0l0.1,2.3l-1.7,0.1l-0.4-6.9l2.4-0.1c0.7,0,1,0,1.4,0.1c0.8,0.3,1.3,0.9,1.4,1.9c0,0.7-0.3,1.6-0.9,1.9l0,0
		c0,0,0.1,0.1,0.3,0.4l1.5,2.3L150.9,325.7z M158.6,325.1c-2.1,0.3-3.8-1.1-4-3.1c-0.2-2,1.1-3.7,3.2-4c2.1-0.3,3.8,1.1,4,3.1
		C162,323.1,160.7,324.8,158.6,325.1z M167.9,323.6c-1.7,0.3-3.1-0.5-3.4-2.1l-0.9-4.3l1.7-0.3l0.8,4.3c0.1,0.7,0.7,1,1.4,0.9
		c0.7-0.1,1.1-0.6,1-1.3l-0.8-4.3l1.7-0.3l0.9,4.3C170.6,321.9,169.6,323.3,167.9,323.6z M176.2,319.3l-1.1,0.3l0.5,2.1l-1.6,0.4
		l-1.8-6.7l2.8-0.7c1.3-0.3,2.4,0.4,2.8,1.7C178.1,317.8,177.5,319,176.2,319.3z M184.6,197.2c6.9,9.4,11,21.2,11,34
		c0,31-24.2,56.2-54.1,56.2c-29.9,0-54.1-25.1-54.1-56.2c0-12.8,4.1-24.5,11-34c-21.4-3-37.9-21.4-37.9-43.7
		c0-24.4,19.8-44.2,44.2-44.2c15.3,0,28.8,7.8,36.7,19.6c7.9-11.8,21.4-19.6,36.7-19.6c24.4,0,44.2,19.8,44.2,44.2
		C222.3,175.7,205.9,194,184.6,197.2z"/>
	<path fill="#FFFFFF" d="M175,316.2l-0.8,0.2l0.5,1.8l0.8-0.2c0.6-0.2,0.8-0.6,0.6-1.1C175.9,316.4,175.5,316.1,175,316.2z"/>
</g>
<rect x="86.1" y="240.4" fill="#FFFFFF" width="111.7" height="6"/>
</svg>
