<?xml version="1.0" encoding="utf-8"?>

<!-- License Agreement at http://iconmonstr.com/license/ -->

<!DOCTYPE svg PUBLIC "-//W3C//DTD SVG 1.1//EN" "http://www.w3.org/Graphics/SVG/1.1/DTD/svg11.dtd">
<svg version="1.1" xmlns="http://www.w3.org/2000/svg" xmlns:xlink="http://www.w3.org/1999/xlink" x="0px" y="0px"
	 width="512px" height="512px" viewBox="0 0 512 512" style="enable-background:new 0 0 512 512;" xml:space="preserve">
<path id="binoculars-8-icon" d="M339.621,124.015c-4.846-13.11-17.335-22.515-32.121-22.515c-22.279,0-39.715,21.358-32.69,44.317
	C293.888,139.036,315.094,126.898,339.621,124.015z M273.167,273.167c0-9.489-7.679-17.167-17.167-17.167
	s-17.167,7.678-17.167,17.167c0,9.488,7.678,17.167,17.167,17.167S273.167,282.655,273.167,273.167z M364.465,356.82
	c25.113-5.33,42.414-25.582,36.849-55.389C425.32,327.449,398.631,369.227,364.465,356.82z M124.107,356.82
	c25.113-5.33,42.414-25.582,36.848-55.389C184.961,327.449,158.272,369.227,124.107,356.82z M204.5,101.5
	c-14.786,0-27.275,9.405-32.12,22.515c24.526,2.883,45.733,15.021,64.811,21.802C244.215,122.858,226.78,101.5,204.5,101.5z
	 M223.963,195.808c20.746,6.806,43.202,6.831,64.056,0.008c44.896-14.669,60.336-34.099,76.43-5.683
	c6.722,11.869,22.865,40.117,28.582,50.368c-48.984-9.874-95.656,24.317-101.977,73.034c-21.174-10.629-47.963-11.115-70.109,0
	c-6.328-48.734-52.975-82.899-101.985-73.034c7.1-12.674,20.301-35.733,28.583-50.36
	C163.612,161.734,179.027,181.123,223.963,195.808z M347.064,141.315c-23.906,0-49.104,15.122-69.723,21.869
	c-13.932,4.568-28.919,4.51-42.683,0c-20.62-6.748-45.809-21.869-69.723-21.869c-17.133,0-33.613,7.762-47.275,31.919
	C76.354,246.269,50,288.02,50,324.667c0,47.409,38.424,85.833,85.833,85.833c69.329,0,71.349-70.779,120.167-70.779
	c48.818,0,50.83,70.779,120.167,70.779c47.409,0,85.833-38.424,85.833-85.833c0-36.647-26.354-78.398-67.66-151.432
	C380.66,149.077,364.197,141.315,347.064,141.315z M376.167,376.167c-28.399,0-51.5-23.102-51.5-51.5
	c0-28.399,23.101-51.5,51.5-51.5c28.398,0,51.5,23.101,51.5,51.5C427.667,353.065,404.565,376.167,376.167,376.167z
	 M135.833,376.167c-28.399,0-51.5-23.102-51.5-51.5c0-28.399,23.101-51.5,51.5-51.5s51.5,23.101,51.5,51.5
	C187.333,353.065,164.232,376.167,135.833,376.167z"/>
</svg>
