<?xml version="1.0" encoding="utf-8"?>
<!-- Generator: Adobe Illustrator 18.1.1, SVG Export Plug-In . SVG Version: 6.00 Build 0)  -->
<!DOCTYPE svg PUBLIC "-//W3C//DTD SVG 1.1//EN" "http://www.w3.org/Graphics/SVG/1.1/DTD/svg11.dtd">
<svg version="1.1" id="Layer_1" xmlns="http://www.w3.org/2000/svg" xmlns:xlink="http://www.w3.org/1999/xlink" x="0px" y="0px"
	 viewBox="-223 25 512 512" enable-background="new -223 25 512 512" xml:space="preserve">
<g>
	<path d="M43.3,402.3c-5.8-4.3-6.4-10.7-6.4-10.7l-2.2-14h-69.6l-2.2,14c0,0-0.6,6.4-6.4,10.7c-5.8,4.3-10.4,8-5.8,8.6
		c4.4,0.6,46.2,0.1,49.2,0c3.1,0.1,44.8,0.6,49.2,0C53.7,410.2,49.1,406.6,43.3,402.3z"/>
	<path d="M-118.6,285.1c0-6.5-5.2-11.7-11.7-11.7h-55.5c-6.5,0-11.7,5.2-11.7,11.7v122.8c0,6.5,5.2,11.7,11.7,11.7h55.5
		c6.5,0,11.7-5.2,11.7-11.7L-118.6,285.1L-118.6,285.1z M-163.8,286.6h11.7c0.8,0,1.5,0.7,1.5,1.5c0,0.8-0.7,1.5-1.5,1.5h-11.7
		c-0.8,0-1.5-0.7-1.5-1.5C-165.3,287.2-164.6,286.6-163.8,286.6z M-158.5,412.7c-3.2,0-5.9-2.6-5.9-5.8c0-3.2,2.6-5.8,5.9-5.8
		c3.2,0,5.8,2.6,5.8,5.8C-152.6,410.1-155.2,412.7-158.5,412.7z M-125.9,396.2h-64.3v-97.9h64.3L-125.9,396.2L-125.9,396.2z"/>
	<path d="M247.1,206.2H126.8c-9.1,0-16.4,7.3-16.4,16.4v172.2c0,9.1,7.3,16.4,16.4,16.4h120.3c9.1,0,16.4-7.3,16.4-16.4V222.6
		C263.5,213.5,256.2,206.2,247.1,206.2z M187,402c-4.5,0-8.2-3.7-8.2-8.2c0-4.5,3.7-8.2,8.2-8.2c4.5,0,8.2,3.7,8.2,8.2
		C195.2,398.4,191.5,402,187,402z M253.2,378.3H120.7V220.5h132.6V378.3L253.2,378.3z"/>
	<path d="M147.7,192.4h20.2v-36.5c0-7.4-6-13.4-13.4-13.4h-309.1c-7.4,0-13.4,6-13.4,13.4v103.8h20.2v-97.1h295.7V192.4L147.7,192.4
		z"/>
	<path d="M-104.7,323.8v40.3H96.6v-40.3H-104.7z M-0.1,353.2c-5.1,0-9.2-4.1-9.2-9.2c0-5.1,4.1-9.2,9.2-9.2c5.1,0,9.2,4.1,9.2,9.2
		C9.1,349.1,5,353.2-0.1,353.2z"/>
</g>
</svg>
